HIERARCHY
ROOT K0
{
    OFFSET 0.000000 0.000000 0.000000
	CHANNELS 6 Xposition Yposition Zposition Zrotation Yrotation Xrotation
    JOINT K1
    {
        OFFSET 10.000000 0.000000 0.000000
        CHANNELS 3 Zrotation Yrotation Xrotation
        JOINT K2
        {
            OFFSET 10.000000 0.000000 0.000000
            CHANNELS 3 Zrotation Yrotation Xrotation
            End Site
                    {
                        OFFSET 10.000000 0.000000 0.000000
                    }
        }
    }
}
MOTION
Frames: 1
Frame Time: 0.041667
0.000000 0.000000 0.000000 30.000000 0.000000 0.000000 30.000000 0.000000 0.000000 30.000000 0.000000 0.000000
